<?xml version="1.0" standalone="no"?>
<!DOCTYPE svg PUBLIC "-//W3C//DTD SVG 20010904//EN"
 "http://www.w3.org/TR/2001/REC-SVG-20010904/DTD/svg10.dtd">
<svg version="1.0" xmlns="http://www.w3.org/2000/svg"
 width="327.000000pt" height="218.000000pt" viewBox="0 0 327.000000 218.000000"
 preserveAspectRatio="xMidYMid meet">

<g transform="translate(0.000000,218.000000) scale(0.100000,-0.100000)"
fill="#000000" stroke="none">
<path d="M1550 1801 c-143 -46 -232 -133 -281 -273 -19 -56 -37 -88 -56 -103
-22 -18 -27 -30 -26 -62 l2 -39 -69 -22 c-94 -31 -120 -53 -120 -103 0 -30 6
-46 26 -64 34 -31 57 -31 145 0 l71 24 26 -30 c21 -26 31 -30 60 -27 28 4 47
-4 99 -39 88 -59 153 -76 268 -71 79 3 102 8 157 36 111 54 206 169 227 275 6
26 14 34 51 47 50 17 72 49 63 90 -4 24 0 28 52 48 31 12 63 22 71 22 8 0 26
11 39 25 36 35 35 96 -1 124 -33 26 -65 26 -149 0 l-67 -20 -24 27 c-23 24
-30 26 -79 20 -41 -5 -55 -2 -66 10 -26 31 -103 77 -168 100 -80 29 -173 30
-251 5z m206 -54 c3 -3 4 -10 1 -14 -9 -14 -100 0 -105 16 -4 11 6 13 47 9 28
-3 54 -8 57 -11z m-166 -12 c0 -8 -8 -15 -17 -15 -27 0 -114 -54 -150 -92 -64
-67 -109 -187 -65 -174 9 3 29 8 43 11 17 4 29 17 37 39 7 19 34 54 60 78 37
35 62 49 115 63 63 17 72 17 120 3 29 -9 66 -22 84 -29 28 -12 42 -10 136 20
63 20 114 30 126 26 16 -5 29 -31 56 -119 19 -62 35 -119 35 -128 0 -24 -31
-44 -87 -58 -50 -13 -52 -15 -72 -70 -27 -74 -69 -131 -128 -175 -48 -35 -126
-65 -170 -65 -36 0 -27 17 12 24 99 19 197 92 241 179 32 62 29 76 -12 65 -22
-5 -36 -18 -44 -38 -21 -50 -103 -116 -161 -130 -63 -15 -149 -8 -192 17 l-32
19 -109 -34 -110 -34 -17 21 c-22 27 -81 215 -77 244 2 15 16 26 48 38 34 12
46 23 49 40 1 13 16 52 31 86 34 74 105 147 175 179 60 27 75 29 75 9z m750
-95 c28 -28 25 -64 -6 -89 -23 -18 -120 -52 -149 -52 -11 0 -48 102 -39 110
10 10 128 49 152 50 12 1 31 -8 42 -19z m-1127 -372 c35 -84 36 -84 -53 -113
-76 -25 -82 -26 -106 -10 -32 21 -39 41 -28 73 7 21 25 33 79 53 39 15 76 27
82 28 7 1 19 -14 26 -31z m376 -189 c44 -16 40 -33 -6 -24 -44 8 -53 13 -53
26 0 12 20 11 59 -2z"/>
<path d="M1968 1582 c-43 -13 -78 -28 -78 -33 0 -5 3 -9 8 -9 18 0 146 40 155
49 19 19 -11 17 -85 -7z"/>
<path d="M1323 1383 c-40 -13 -73 -29 -73 -34 0 -13 6 -12 88 14 41 12 74 26
74 32 -1 16 -14 14 -89 -12z"/>
<path d="M1660 880 c0 -5 5 -10 10 -10 6 0 10 5 10 10 0 6 -4 10 -10 10 -5 0
-10 -4 -10 -10z"/>
<path d="M1317 833 c-4 -3 -7 -35 -7 -70 0 -49 3 -63 15 -63 12 0 15 13 15 55
0 40 4 57 15 61 8 4 15 10 15 15 0 10 -43 12 -53 2z"/>
<path d="M1406 824 c-18 -18 -21 -76 -6 -105 12 -21 74 -27 86 -8 5 8 -1 10
-19 5 -17 -4 -31 -1 -41 10 -25 25 -19 34 24 34 37 0 40 2 40 28 0 15 -5 33
-12 40 -17 17 -54 15 -72 -4z m62 -21 c4 -16 -22 -27 -43 -19 -22 8 -6 38 18
34 11 -2 22 -9 25 -15z"/>
<path d="M1530 821 c-5 -11 -10 -34 -10 -51 0 -47 16 -70 49 -70 16 0 34 7 41
15 18 21 5 31 -15 12 -32 -32 -65 12 -51 68 7 27 34 33 54 13 17 -17 28 -2 12
17 -18 22 -67 19 -80 -4z"/>
<path d="M1657 833 c-4 -3 -7 -35 -7 -70 0 -49 3 -63 15 -63 12 0 15 14 15 70
0 64 -6 81 -23 63z"/>
<path d="M1720 738 c0 -64 4 -97 10 -93 6 3 10 17 10 31 0 20 5 24 30 24 34 0
50 23 50 70 0 53 -15 70 -60 68 l-40 -1 0 -99z m74 66 c17 -45 -8 -100 -39
-88 -15 6 -22 84 -8 97 12 13 41 7 47 -9z"/>
<path d="M1860 821 c-14 -27 -13 -94 2 -109 15 -15 75 -16 84 -1 5 8 -1 10
-20 7 -16 -3 -33 0 -42 9 -23 24 -16 33 26 33 37 0 40 2 40 28 0 15 -5 33 -12
40 -19 19 -66 15 -78 -7z m68 -18 c4 -16 -22 -27 -43 -19 -22 8 -6 38 18 34
11 -2 22 -9 25 -15z"/>
<path d="M1989 824 c-16 -20 -3 -44 34 -62 28 -13 35 -36 16 -47 -5 -4 -19 1
-30 11 -22 20 -38 12 -19 -11 15 -18 61 -20 78 -3 21 21 13 37 -28 63 -23 14
-38 30 -35 35 9 14 43 12 48 -2 2 -7 8 -10 12 -6 4 4 5 14 2 23 -8 20 -61 20
-78 -1z"/>
<path d="M1490 468 c0 -49 5 -47 13 5 3 20 2 37 -4 37 -5 0 -9 -19 -9 -42z"/>
<path d="M1538 485 c-9 -20 -9 -28 2 -38 10 -9 11 -9 6 1 -4 6 -3 12 2 12 6 0
8 10 5 21 -5 16 -2 20 8 17 8 -3 13 -11 12 -17 -2 -6 2 -11 7 -11 14 0 13 13
-2 28 -18 18 -27 15 -40 -13z"/>
<path d="M1612 498 c-14 -14 -16 -44 -4 -52 4 -2 8 8 7 22 0 20 5 27 17 26 10
-1 15 2 12 7 -7 12 -18 11 -32 -3z"/>
<path d="M1739 502 c9 -6 12 -21 9 -41 -3 -19 -1 -28 4 -23 14 14 5 65 -12 69
-12 4 -13 3 -1 -5z"/>
<path d="M1792 498 c-14 -14 -16 -58 -3 -58 4 0 8 12 7 27 -1 29 19 43 27 18
4 -13 5 -12 3 1 -1 22 -18 28 -34 12z"/>
<path d="M1860 500 c-8 -5 -11 -12 -7 -17 5 -4 12 -1 16 6 5 8 14 10 21 6 9
-5 11 -4 6 3 -9 14 -16 15 -36 2z"/>
<path d="M1682 470 c0 -19 2 -27 5 -17 2 9 2 25 0 35 -3 9 -5 1 -5 -18z"/>
<path d="M1882 456 c7 -8 15 -12 17 -11 5 6 -10 25 -20 25 -5 0 -4 -6 3 -14z"/>
<path d="M1710 434 c0 -8 5 -12 10 -9 6 4 8 11 5 16 -9 14 -15 11 -15 -7z"/>
</g>
</svg>
